<svg width="193" height="71" viewBox="0 0 193 71" fill="none" xmlns="http://www.w3.org/2000/svg">
<path d="M22.6027 56L23 57L13 57L13.3967 56L22.6027 56Z" fill="#C3CACF"/>
<path d="M21.0483 57L14.9621 57C11.7392 65.7037 17.6462 71 17.6462 71C24.7177 65.1735 21.0483 57 21.0483 57Z" fill="#FCBF11"/>
<path d="M16.1313 57L19.8812 57C20.1505 59.2366 20.1465 63.0145 17.8239 66C17.8227 66 15.4211 62.6391 16.1313 57Z" fill="#FFE564"/>
<path d="M17.911 61C17.911 61 17.053 59.5334 17 57L19 57C18.9645 58.2528 18.7145 59.7408 17.911 61Z" fill="#EE8940"/>
<path d="M11 54L25 54L25 56L11 56L11 54Z" fill="#AE4B1C"/>
<path d="M26 53L26 17.7376C26 12.4437 25.6217 11.652 24.0311 8.37023C23.83 8.06844 21.0597 4 18 4C14.8336 4 11.986 8.34371 11.9578 8.38728C10.439 10.8262 10 11.7966 10 17.7376L10 52.9987L26 53Z" fill="#DBE2E8"/>
<path d="M18.0003 4.72382C14.7957 4.72382 11.8291 8.9334 11.8067 8.96514C10.2116 11.3531 9.75223 12.303 9.75223 18.178L9.75223 53.2768L26.2478 53.2768L26.2478 18.1767C26.2478 12.9506 25.8512 12.1601 24.1762 8.93975C23.886 8.53657 21.0595 4.72255 17.9997 4.72255L18.0003 4.72382ZM17.9997 4C21.6544 4 24.8266 8.57149 24.8266 8.57149C26.5743 11.9366 27 12.8052 27 18.1748L27 54L9 54L9 18.1767C9 12.2293 9.4713 11.122 11.1734 8.57339C11.1734 8.57339 14.3463 4.00191 18.0003 4.00191L17.9997 4Z" fill="white"/>
<path d="M13.6031 7L22.5607 7C22.5607 7 25 12.5388 25 18.2235L25 54L11 54L11 18.2235C11 12.2852 13.6031 7 13.6031 7Z" fill="white"/>
<path d="M11 8C12.302 6.04278 16.8322 7.02995e-07 17.9112 6.10126e-07C19.0085 5.15681e-07 24.3202 6.89385 25 8C25 8 21.8592 7.19345 18 7.19345C14.1408 7.19345 11 8 11 8Z" fill="#1B6094"/>
<path d="M17.9247 4.3683e-07C17.9501 0.00194747 17.9753 0.00619509 18 0.0126914C18.86 0.322619 22.088 6.15246 23 8C21.3489 7.70973 19.6763 7.56024 18 7.55314C16.3237 7.56017 14.6511 7.70966 13 8C14.1527 5.63547 17.1553 0.0474247 17.9247 4.3683e-07Z" fill="#3473A0"/>
<path d="M27 28L27 49L36 49L36 45.3247C36 44.5587 27 28 27 28Z" fill="#DBE2E8"/>
<path d="M35.2237 50.9425L27 53L27 49L36 49L36 49.6145C36 50.6596 35.2237 50.9425 35.2237 50.9425Z" fill="#AE4B1C"/>
<path d="M9 28L9 49L-7.14703e-08 49L-3.92778e-07 45.3247C-4.5974e-07 44.5587 9 28 9 28Z" fill="#DBE2E8"/>
<path d="M0.778506 50.9409L9 53L9 49L0 49L5.36746e-08 49.614C1.44965e-07 50.6582 0.778506 50.9409 0.778506 50.9409Z" fill="#AE4B1C"/>
<path d="M27 28C27 28 35.9695 45.3001 36 46C35.9451 45.9639 35.8889 45.9271 35.8334 45.8884C31.0727 42.6746 28.3558 37.9886 27 34.9767L27 28Z" fill="white"/>
<path d="M9 28L9 34.1476C7.73829 36.9626 5.00558 41.7504 -4.21161e-07 45C0.057405 44.4246 9 28 9 28Z" fill="white"/>
<path d="M18 11L18 15.5873C17.5288 15.647 17.0755 15.7872 16.6658 16L13 12.6847C14.4273 11.6814 16.1746 11.0926 18 11Z" fill="#1B6094"/>
<path d="M19.3393 16C18.928 15.7868 18.4729 15.6465 18 15.5873L18 11C19.8255 11.0927 21.5728 11.6815 23 12.6847L19.3393 16Z" fill="#1B6094"/>
<path d="M20.8222 18C20.6676 17.4682 20.3858 16.9799 20 16.5757L23.5465 13C24.9154 14.3494 25.7796 16.1102 26 17.9986L20.8222 18Z" fill="#1B6094"/>
<path d="M16 16.5765C15.6143 16.9807 15.3323 17.4685 15.1772 18L10 18C10.2194 16.1112 11.0836 14.3497 12.4532 13L16 16.5765Z" fill="#1B6094"/>
<path d="M22 54L22 45.0271C22.013 44.2204 22.3874 43.4505 23.0424 42.884C23.6974 42.3176 24.5802 42 25.5 42C26.4198 42 27.3026 42.3176 27.9576 42.884C28.6126 43.4505 28.987 44.2204 29 45.0271L29 54L22 54Z" fill="#DBE2E8"/>
<path d="M7 54L7 45.0271C7.01297 44.2204 7.38743 43.4505 8.0424 42.884C8.69736 42.3176 9.5802 42 10.5 42C11.4198 42 12.3026 42.3176 12.9576 42.884C13.6126 43.4505 13.987 44.2204 14 45.0271L14 54L7 54Z" fill="#DBE2E8"/>
<path d="M26 42C26.8046 42.0261 27.5673 42.3596 28.1271 42.9302C28.687 43.5007 29 44.2636 29 45.0575L29 54L26 54L26 42Z" fill="#CDD4D9"/>
<path d="M10 42L10 54L7 54L7 45.0575C7.00023 44.2594 7.31407 43.4929 7.87455 42.9217C8.43503 42.3505 9.19776 42.0197 10 42Z" fill="#CDD4D9"/>
<path d="M27.5247 56L24.481 56C22.8696 60.9738 25.8237 64 25.8237 64C29.358 60.6706 27.5247 56 27.5247 56Z" fill="#FCBF11"/>
<path d="M25.0659 56L26.9403 56C27.0754 57.4931 27.0737 60.01 25.9111 62C25.9111 62.0025 24.71 59.76 25.0659 56Z" fill="#FFE564"/>
<path d="M25.4559 60C25.4559 60 25.0267 58.533 25 56L26 56C25.9831 57.2548 25.8579 58.741 25.4559 60Z" fill="#EE8940"/>
<path d="M24 56L28 56L27.8965 55L24.1041 55L24 56Z" fill="#BDC3C8"/>
<path d="M23 54L23 54.587C22.9999 54.6412 23.0099 54.695 23.0292 54.7451C23.0486 54.7953 23.0771 54.8409 23.113 54.8792C23.1489 54.9176 23.1916 54.948 23.2385 54.9687C23.2854 54.9895 23.3357 55.0001 23.3865 55L27.6142 55C27.6649 55 27.7151 54.9893 27.762 54.9685C27.8088 54.9478 27.8514 54.9173 27.8872 54.879C27.9231 54.8406 27.9515 54.7951 27.9708 54.745C27.9902 54.6949 28.0001 54.6412 28 54.587L28 54L23 54Z" fill="#DBE2E8"/>
<path d="M24 54L24 43.7642C24.0097 43.2933 24.2246 42.8447 24.5986 42.5148C24.9727 42.1848 25.4759 42 26 42C26.5241 42 27.0273 42.1848 27.4014 42.5148C27.7754 42.8447 27.9903 43.2933 28 43.7642L28 54L24 54Z" fill="#E6ECF0"/>
<path d="M26 42C26.2627 42 26.5228 42.0577 26.7655 42.1699C27.0082 42.282 27.2287 42.4464 27.4144 42.6536C27.6001 42.8608 27.7474 43.1068 27.8479 43.3776C27.9484 43.6483 28.0001 43.9385 28 44.2315L28 54L27.6064 54L27.6064 43.7919C27.6064 43.3166 27.4372 42.8609 27.1359 42.5248C26.8347 42.1888 26.4261 42 26 42Z" fill="white"/>
<path d="M26 42C25.3577 42.0187 24.7502 42.2156 24.3049 42.5493C23.8596 42.8831 23.6108 43.328 23.6107 43.7908L23.6107 54L23 54L23 44.2305C23 43.651 23.3131 43.0943 23.8729 42.6781C24.4328 42.2618 25.1956 42.0187 26 42Z" fill="white"/>
<path d="M11.5232 56L8.48086 56C6.86983 60.9738 9.82327 64 9.82327 64C13.36 60.6706 11.5232 56 11.5232 56Z" fill="#FCBF11"/>
<path d="M9.06572 56L10.9405 56C11.0756 57.4931 11.0727 60.01 9.91137 62C9.91137 62.0025 8.71045 59.76 9.06572 56Z" fill="#FFE564"/>
<path d="M10.4556 60C10.4556 60 10.0257 58.533 10 56L11 56C10.9831 57.2548 10.8584 58.741 10.4556 60Z" fill="#EE8940"/>
<path d="M8 56L12 56L11.8959 55L8.10351 55L8 56Z" fill="#BDC3C8"/>
<path d="M8 54L8 54.587C7.99991 54.6412 8.00983 54.6949 8.02918 54.745C8.04852 54.7951 8.07693 54.8406 8.11276 54.879C8.14859 54.9173 8.19115 54.9478 8.23799 54.9685C8.28484 54.9893 8.33506 55 8.38578 55L12.6142 55C12.665 55.0001 12.7152 54.9895 12.7621 54.9687C12.809 54.948 12.8516 54.9176 12.8874 54.8792C12.9233 54.8408 12.9517 54.7952 12.971 54.7451C12.9903 54.6949 13.0002 54.6412 13 54.587L13 54L8 54Z" fill="#DBE2E8"/>
<path d="M8 54L8 43.7642C8.00966 43.2933 8.22462 42.8447 8.59864 42.5148C8.97266 42.1848 9.47586 42 10 42C10.5241 42 11.0273 42.1848 11.4014 42.5148C11.7754 42.8447 11.9903 43.2933 12 43.7642L12 54L8 54Z" fill="#E6ECF0"/>
<path d="M10 42C10.7956 42 11.5587 42.2351 12.1213 42.6536C12.6839 43.0721 13 43.6396 13 44.2315L13 54L12.409 54L12.409 43.7919C12.409 43.3166 12.1552 42.8609 11.7034 42.5248C11.2516 42.1888 10.6389 42 10 42Z" fill="white"/>
<path d="M10 42C9.57165 42.0187 9.1666 42.2156 8.86961 42.5493C8.57263 42.8831 8.40674 43.328 8.40665 43.7908L8.40666 54L8 54L8 44.2305C8.00001 43.6511 8.20869 43.0945 8.58192 42.6783C8.95515 42.262 9.46368 42.0188 10 42Z" fill="white"/>
<path d="M17.0006 54L17.0006 42.5679C16.9959 42.4943 17.0183 42.4209 17.0664 42.3521C17.1145 42.2833 17.1873 42.2206 17.2806 42.1676C17.3738 42.1146 17.4856 42.0724 17.6092 42.0436C17.7328 42.0148 17.8657 42 18 42C18.1343 42 18.2672 42.0148 18.3908 42.0436C18.5144 42.0724 18.6262 42.1146 18.7194 42.1676C18.8127 42.2206 18.8855 42.2833 18.9336 42.3521C18.9817 42.4209 19.0041 42.4943 18.9994 42.5679L18.9994 54L17.0006 54Z" fill="#EC622A"/>
<path d="M19 22L21.4659 22C21.536 21.9998 21.6055 22.0136 21.6703 22.0404C21.7352 22.0672 21.7941 22.1066 21.8437 22.1564C21.8933 22.2061 21.9327 22.2652 21.9595 22.3302C21.9863 22.3953 22.0001 22.465 22 22.5353L22 28.464C22.0001 28.5344 21.9863 28.6042 21.9595 28.6692C21.9327 28.7343 21.8934 28.7934 21.8437 28.8432C21.7941 28.893 21.7352 28.9325 21.6704 28.9594C21.6055 28.9863 21.5361 29.0001 21.4659 29L19 29L19 22Z" fill="#DBE2E8"/>
<path d="M17 22L14.5341 22C14.464 21.9998 14.3945 22.0136 14.3297 22.0404C14.2648 22.0672 14.2059 22.1066 14.1563 22.1564C14.1067 22.2061 14.0673 22.2652 14.0405 22.3302C14.0137 22.3953 13.9999 22.465 14 22.5353L14 28.464C13.9999 28.5344 14.0137 28.6042 14.0405 28.6692C14.0673 28.7343 14.1066 28.7934 14.1563 28.8432C14.2059 28.893 14.2648 28.9325 14.3296 28.9594C14.3945 28.9863 14.4639 29.0001 14.5341 29L17 29L17 22Z" fill="#DBE2E8"/>
<path d="M56.8764 32C53.5316 32 50.9119 31.2014 49.0173 29.6042C47.1461 27.9838 46.152 25.6458 46.0351 22.5903C46.0117 21.9653 46 20.9468 46 19.5347C46 18.0995 46.0117 17.0579 46.0351 16.4097C46.152 13.4005 47.1695 11.0856 49.0875 9.46528C51.0055 7.82176 53.6018 7 56.8764 7C58.9348 7 60.7826 7.34722 62.4199 8.04167C64.0572 8.71296 65.3437 9.68519 66.2793 10.9583C67.2383 12.2083 67.7295 13.6782 67.7529 15.3681V15.4375C67.7529 15.6227 67.671 15.7847 67.5073 15.9236C67.367 16.0394 67.2032 16.0972 67.0161 16.0972H62.2796C61.9755 16.0972 61.7416 16.0394 61.5779 15.9236C61.4141 15.7847 61.2738 15.5417 61.1569 15.1944C60.8294 14.0139 60.3148 13.1921 59.6131 12.7292C58.9114 12.2431 57.9875 12 56.8414 12C54.0813 12 52.6545 13.5278 52.561 16.5833C52.5376 17.2083 52.5259 18.169 52.5259 19.4653C52.5259 20.7616 52.5376 21.7454 52.561 22.4167C52.6545 25.4722 54.0813 27 56.8414 27C57.9875 27 58.9231 26.7569 59.6482 26.2708C60.3733 25.7616 60.8762 24.9398 61.1569 23.8056C61.2504 23.4583 61.3791 23.2269 61.5428 23.1111C61.7065 22.9722 61.9521 22.9028 62.2796 22.9028H67.0161C67.2266 22.9028 67.402 22.9722 67.5424 23.1111C67.7061 23.25 67.7763 23.4236 67.7529 23.6319C67.7295 25.3218 67.2383 26.8032 66.2793 28.0764C65.3437 29.3264 64.0572 30.2986 62.4199 30.9931C60.7826 31.6644 58.9348 32 56.8764 32Z" fill="white"/>
<path d="M79.6871 32C76.7867 32 74.553 31.3171 72.9858 29.9514C71.4187 28.5857 70.5649 26.6644 70.4246 24.1875C70.4012 23.8866 70.3895 23.3657 70.3895 22.625C70.3895 21.8843 70.4012 21.3634 70.4246 21.0625C70.5649 18.6088 71.4421 16.6991 73.056 15.3333C74.6699 13.9444 76.8803 13.25 79.6871 13.25C82.5173 13.25 84.7394 13.9444 86.3533 15.3333C87.9672 16.6991 88.8444 18.6088 88.9847 21.0625C89.0081 21.3634 89.0198 21.8843 89.0198 22.625C89.0198 23.3657 89.0081 23.8866 88.9847 24.1875C88.8444 26.6644 87.9906 28.5857 86.4235 29.9514C84.8563 31.3171 82.6109 32 79.6871 32ZM79.6871 27.7639C80.7163 27.7639 81.4765 27.463 81.9677 26.8611C82.4589 26.2361 82.7395 25.287 82.8097 24.0139C82.8331 23.7824 82.8448 23.3194 82.8448 22.625C82.8448 21.9306 82.8331 21.4676 82.8097 21.2361C82.7395 19.9861 82.4472 19.0486 81.9326 18.4236C81.4414 17.7986 80.6929 17.4861 79.6871 17.4861C77.7457 17.4861 76.7166 18.7361 76.5996 21.2361L76.5645 22.625L76.5996 24.0139C76.6464 25.287 76.9154 26.2361 77.4066 26.8611C77.9212 27.463 78.6813 27.7639 79.6871 27.7639Z" fill="white"/>
<path d="M100.013 32C98.1184 32 96.5279 31.7338 95.2414 31.2014C93.9783 30.669 93.0427 30.0324 92.4346 29.2917C91.8264 28.5509 91.5224 27.8912 91.5224 27.3125C91.5224 27.081 91.6042 26.8958 91.768 26.7569C91.9551 26.5949 92.1539 26.5139 92.3644 26.5139H96.3641C96.5045 26.5139 96.6331 26.5718 96.7501 26.6875C97.0308 26.8727 97.2413 27.0232 97.3816 27.1389C97.8962 27.5093 98.3406 27.787 98.7149 27.9722C99.1125 28.1343 99.592 28.2153 100.153 28.2153C100.832 28.2153 101.381 28.088 101.802 27.8333C102.247 27.5556 102.469 27.1736 102.469 26.6875C102.469 26.294 102.352 25.9815 102.118 25.75C101.908 25.5185 101.487 25.2986 100.855 25.0903C100.224 24.8588 99.2645 24.6157 97.9781 24.3611C96.0367 23.9676 94.5397 23.331 93.4872 22.4514C92.458 21.5486 91.9434 20.3449 91.9434 18.8403C91.9434 17.8912 92.2475 16.9884 92.8556 16.1319C93.4638 15.2755 94.3643 14.581 95.5572 14.0486C96.7735 13.5162 98.212 13.25 99.8727 13.25C101.533 13.25 102.984 13.5046 104.223 14.0139C105.463 14.5231 106.399 15.1481 107.03 15.8889C107.685 16.6065 108.012 17.2662 108.012 17.8681C108.012 18.0764 107.931 18.2616 107.767 18.4236C107.627 18.5856 107.451 18.6667 107.241 18.6667H103.592C103.405 18.6667 103.229 18.6088 103.065 18.4931C102.761 18.331 102.492 18.1574 102.258 17.9722C101.861 17.6713 101.487 17.4398 101.136 17.2778C100.785 17.1157 100.352 17.0347 99.8376 17.0347C99.2294 17.0347 98.7383 17.1736 98.364 17.4514C98.0132 17.7292 97.8377 18.088 97.8377 18.5278C97.8377 18.875 97.9313 19.1644 98.1184 19.3958C98.3289 19.6273 98.7499 19.8588 99.3815 20.0903C100.036 20.2986 100.995 20.5185 102.258 20.75C104.527 21.1435 106.176 21.838 107.206 22.8333C108.258 23.8287 108.784 24.9977 108.784 26.3403C108.784 28.0532 108.012 29.4306 106.469 30.4722C104.925 31.4907 102.773 32 100.013 32Z" fill="white"/>
<path d="M112.775 31.6528C112.517 31.6528 112.307 31.5718 112.143 31.4097C111.979 31.2477 111.898 31.0394 111.898 30.7847V14.4653C111.898 14.2106 111.979 14.0023 112.143 13.8403C112.307 13.6782 112.517 13.5972 112.775 13.5972H116.599C116.856 13.5972 117.067 13.6782 117.231 13.8403C117.394 14.0023 117.476 14.2106 117.476 14.4653V15.6458C118.014 14.9514 118.728 14.3843 119.616 13.9444C120.529 13.4815 121.546 13.25 122.669 13.25C125.242 13.25 127.019 14.2454 128.002 16.2361C128.563 15.3565 129.347 14.6389 130.353 14.0833C131.358 13.5278 132.434 13.25 133.58 13.25C135.498 13.25 137.054 13.8981 138.247 15.1944C139.463 16.4676 140.071 18.3773 140.071 20.9236V30.7847C140.071 31.0162 139.989 31.2245 139.826 31.4097C139.662 31.5718 139.451 31.6528 139.194 31.6528H135.124C134.867 31.6528 134.645 31.5718 134.457 31.4097C134.294 31.2477 134.212 31.0394 134.212 30.7847V21.1667C134.212 20.0093 133.966 19.1759 133.475 18.6667C133.007 18.1574 132.364 17.9028 131.545 17.9028C130.797 17.9028 130.177 18.169 129.686 18.7014C129.195 19.2106 128.949 20.0324 128.949 21.1667V30.7847C128.949 31.0162 128.867 31.2245 128.703 31.4097C128.54 31.5718 128.329 31.6528 128.072 31.6528H124.002C123.745 31.6528 123.534 31.5718 123.371 31.4097C123.207 31.2477 123.125 31.0394 123.125 30.7847V21.1667C123.125 20.0324 122.868 19.2106 122.353 18.7014C121.862 18.169 121.23 17.9028 120.458 17.9028C119.71 17.9028 119.078 18.169 118.564 18.7014C118.073 19.2106 117.827 20.0208 117.827 21.1319V30.7847C117.827 31.0162 117.745 31.2245 117.581 31.4097C117.418 31.5718 117.207 31.6528 116.95 31.6528H112.775Z" fill="white"/>
<path d="M152.667 32C149.767 32 147.533 31.3171 145.966 29.9514C144.399 28.5857 143.545 26.6644 143.405 24.1875C143.381 23.8866 143.37 23.3657 143.37 22.625C143.37 21.8843 143.381 21.3634 143.405 21.0625C143.545 18.6088 144.422 16.6991 146.036 15.3333C147.65 13.9444 149.86 13.25 152.667 13.25C155.498 13.25 157.72 13.9444 159.334 15.3333C160.947 16.6991 161.825 18.6088 161.965 21.0625C161.988 21.3634 162 21.8843 162 22.625C162 23.3657 161.988 23.8866 161.965 24.1875C161.825 26.6644 160.971 28.5857 159.404 29.9514C157.837 31.3171 155.591 32 152.667 32ZM152.667 27.7639C153.696 27.7639 154.457 27.463 154.948 26.8611C155.439 26.2361 155.72 25.287 155.79 24.0139C155.813 23.7824 155.825 23.3194 155.825 22.625C155.825 21.9306 155.813 21.4676 155.79 21.2361C155.72 19.9861 155.427 19.0486 154.913 18.4236C154.422 17.7986 153.673 17.4861 152.667 17.4861C150.726 17.4861 149.697 18.7361 149.58 21.2361L149.545 22.625L149.58 24.0139C149.627 25.287 149.896 26.2361 150.387 26.8611C150.901 27.463 151.662 27.7639 152.667 27.7639Z" fill="white"/>
<path d="M56.8307 63.5484C53.4999 63.5484 50.8913 62.7323 49.0046 61.1C47.1413 59.4441 46.1514 57.0548 46.0349 53.9323C46.0116 53.2935 46 52.2527 46 50.8097C46 49.343 46.0116 48.2785 46.0349 47.6161C46.1514 44.5409 47.1646 42.1753 49.0745 40.5194C50.9844 38.8398 53.5698 38 56.8307 38C58.8803 38 60.7204 38.3548 62.3508 39.0645C63.9812 39.7505 65.2623 40.7441 66.1939 42.0452C67.1489 43.3226 67.638 44.8247 67.6613 46.5516V46.6226C67.6613 46.8118 67.5798 46.9774 67.4168 47.1194C67.277 47.2376 67.114 47.2968 66.9276 47.2968H62.2111C61.9083 47.2968 61.6753 47.2376 61.5123 47.1194C61.3493 46.9774 61.2095 46.729 61.093 46.3742C60.767 45.1677 60.2545 44.328 59.5558 43.8548C58.857 43.3581 57.937 43.1097 56.7957 43.1097C54.0473 43.1097 52.6265 44.671 52.5333 47.7935C52.51 48.4323 52.4984 49.414 52.4984 50.7387C52.4984 52.0634 52.51 53.0688 52.5333 53.7548C52.6265 56.8774 54.0473 58.4387 56.7957 58.4387C57.937 58.4387 58.8687 58.1903 59.5907 57.6935C60.3128 57.1731 60.8135 56.3333 61.093 55.1742C61.1862 54.8194 61.3143 54.5828 61.4774 54.4645C61.6404 54.3226 61.885 54.2516 62.2111 54.2516H66.9276C67.1373 54.2516 67.3119 54.3226 67.4517 54.4645C67.6147 54.6064 67.6846 54.7839 67.6613 54.9968C67.638 56.7237 67.1489 58.2376 66.1939 59.5387C65.2623 60.8161 63.9812 61.8097 62.3508 62.5194C60.7204 63.2054 58.8803 63.5484 56.8307 63.5484Z" fill="#F1B300"/>
<path d="M71.8241 63.1935C71.5912 63.1935 71.3815 63.1108 71.1952 62.9452C71.0322 62.7559 70.9506 62.543 70.9506 62.3064V38.8871C70.9506 38.6269 71.0322 38.414 71.1952 38.2484C71.3815 38.0828 71.5912 38 71.8241 38H76.2961C76.5523 38 76.7619 38.0828 76.925 38.2484C77.088 38.414 77.1695 38.6269 77.1695 38.8871V46.8C78.567 45.1914 80.4071 44.3871 82.6897 44.3871C84.0406 44.3871 85.2401 44.6946 86.2883 45.3097C87.3597 45.9247 88.1982 46.8355 88.8038 48.0419C89.4093 49.2484 89.7121 50.7032 89.7121 52.4064V62.3064C89.7121 62.543 89.6306 62.7559 89.4676 62.9452C89.3045 63.1108 89.0949 63.1935 88.8387 63.1935H84.3317C84.0988 63.1935 83.8892 63.1108 83.7029 62.9452C83.5398 62.7559 83.4583 62.543 83.4583 62.3064V52.6194C83.4583 51.5075 83.1905 50.6559 82.6547 50.0645C82.1423 49.4495 81.3853 49.1419 80.3838 49.1419C79.3823 49.1419 78.5903 49.4495 78.008 50.0645C77.449 50.6559 77.1695 51.5075 77.1695 52.6194V62.3064C77.1695 62.5667 77.088 62.7796 76.925 62.9452C76.7619 63.1108 76.5523 63.1935 76.2961 63.1935H71.8241Z" fill="#F1B300"/>
<path d="M99.124 63.5484C97.8895 63.5484 96.7599 63.3118 95.7351 62.8387C94.7335 62.3419 93.9416 61.6796 93.3593 60.8516C92.8003 60 92.5208 59.0656 92.5208 58.0484C92.5208 56.4161 93.173 55.1032 94.4773 54.1097C95.8049 53.1161 97.6217 52.4301 99.9276 52.0516L104.295 51.3774V50.8806C104.295 49.9817 104.108 49.3194 103.736 48.8935C103.363 48.4677 102.734 48.2548 101.849 48.2548C101.313 48.2548 100.871 48.3495 100.522 48.5387C100.172 48.728 99.8111 48.9882 99.4384 49.3194C99.1124 49.6032 98.8678 49.7925 98.7048 49.8871C98.6349 50.0763 98.5068 50.171 98.3204 50.171H94.5122C94.2793 50.171 94.0813 50.1 93.9183 49.9581C93.7785 49.7925 93.7203 49.6032 93.7436 49.3903C93.7669 48.7516 94.0697 48.0419 94.652 47.2613C95.2576 46.4806 96.166 45.8064 97.3771 45.2387C98.6116 44.671 100.126 44.3871 101.919 44.3871C104.784 44.3871 106.903 45.0376 108.278 46.3387C109.652 47.6161 110.339 49.343 110.339 51.5194V62.3064C110.339 62.543 110.257 62.7559 110.094 62.9452C109.931 63.1108 109.722 63.1935 109.466 63.1935H105.413C105.18 63.1935 104.97 63.1108 104.784 62.9452C104.621 62.7559 104.539 62.543 104.539 62.3064V61.0645C104.027 61.7978 103.305 62.4011 102.373 62.8742C101.465 63.3237 100.382 63.5484 99.124 63.5484ZM100.766 59.5032C101.837 59.5032 102.699 59.1484 103.351 58.4387C104.027 57.729 104.365 56.6882 104.365 55.3161V54.8194L101.395 55.3516C99.2987 55.7301 98.2506 56.4753 98.2506 57.5871C98.2506 58.1785 98.4951 58.6516 98.9843 59.0064C99.4734 59.3376 100.067 59.5032 100.766 59.5032Z" fill="#F1B300"/>
<path d="M115.155 63.1935C114.899 63.1935 114.689 63.1108 114.526 62.9452C114.363 62.7796 114.281 62.5667 114.281 62.3064V45.629C114.281 45.3688 114.363 45.1559 114.526 44.9903C114.689 44.8247 114.899 44.7419 115.155 44.7419H119.173C119.429 44.7419 119.639 44.8247 119.802 44.9903C119.988 45.1559 120.081 45.3688 120.081 45.629V46.9774C120.71 46.1968 121.514 45.5699 122.492 45.0968C123.493 44.6237 124.623 44.3871 125.881 44.3871C127.93 44.3871 129.596 45.0968 130.877 46.5161C132.158 47.9118 132.798 49.8753 132.798 52.4064V62.3064C132.798 62.543 132.717 62.7559 132.554 62.9452C132.391 63.1108 132.181 63.1935 131.925 63.1935H127.523C127.29 63.1935 127.08 63.1108 126.894 62.9452C126.731 62.7559 126.649 62.543 126.649 62.3064V52.6194C126.649 51.5075 126.382 50.6559 125.846 50.0645C125.31 49.4495 124.541 49.1419 123.54 49.1419C122.562 49.1419 121.793 49.4495 121.234 50.0645C120.675 50.6559 120.396 51.5075 120.396 52.6194V62.3064C120.396 62.543 120.314 62.7559 120.151 62.9452C119.988 63.1108 119.778 63.1935 119.522 63.1935H115.155Z" fill="#F1B300"/>
<path d="M145.641 71C143.428 71 141.635 70.6333 140.26 69.9C138.886 69.1667 137.896 68.3269 137.291 67.3806C136.708 66.4344 136.417 65.6419 136.417 65.0032C136.417 64.7903 136.51 64.6011 136.697 64.4355C136.883 64.2699 137.093 64.1871 137.326 64.1871H141.763C141.996 64.1871 142.17 64.2344 142.287 64.329C142.426 64.4473 142.555 64.6366 142.671 64.8968C142.904 65.4409 143.218 65.8667 143.614 66.1742C144.01 66.5054 144.628 66.671 145.466 66.671C146.537 66.671 147.329 66.3989 147.842 65.8548C148.354 65.3344 148.61 64.4473 148.61 63.1935V60.8161C147.423 62.1409 145.722 62.8032 143.51 62.8032C141.157 62.8032 139.352 62.1054 138.094 60.7097C136.86 59.2903 136.184 57.2441 136.068 54.571L136.033 53.6129C136.033 50.7505 136.662 48.5032 137.919 46.871C139.177 45.2151 141.041 44.3871 143.51 44.3871C144.697 44.3871 145.746 44.6237 146.654 45.0968C147.562 45.5462 148.331 46.1613 148.96 46.9419V45.629C148.96 45.3688 149.041 45.1559 149.204 44.9903C149.391 44.8247 149.6 44.7419 149.833 44.7419H153.851C154.107 44.7419 154.317 44.8366 154.48 45.0258C154.666 45.1914 154.759 45.3925 154.759 45.629V62.6968C154.759 65.3935 153.968 67.4516 152.384 68.871C150.8 70.2903 148.552 71 145.641 71ZM145.396 58.1903C146.444 58.1903 147.225 57.871 147.737 57.2323C148.249 56.5699 148.541 55.7419 148.61 54.7484C148.634 54.5828 148.645 54.2161 148.645 53.6484C148.645 53.1043 148.634 52.7495 148.61 52.5839C148.564 51.5903 148.273 50.7742 147.737 50.1355C147.225 49.4731 146.444 49.1419 145.396 49.1419C144.301 49.1419 143.51 49.4731 143.02 50.1355C142.531 50.7978 142.263 51.7086 142.217 52.8677L142.182 53.6484C142.182 55.0441 142.415 56.1559 142.881 56.9839C143.346 57.7882 144.185 58.1903 145.396 58.1903Z" fill="#F1B300"/>
<path d="M167.26 63.5484C164.465 63.5484 162.264 62.7796 160.657 61.2419C159.049 59.7043 158.211 57.4688 158.141 54.5355V53.2935C158.234 50.5021 159.084 48.3258 160.691 46.7645C162.322 45.1796 164.5 44.3871 167.225 44.3871C169.205 44.3871 170.87 44.8011 172.221 45.629C173.595 46.4333 174.62 47.5452 175.295 48.9645C175.994 50.3839 176.343 52.0161 176.343 53.8613V54.7129C176.343 54.9495 176.262 55.1624 176.099 55.3516C175.936 55.5172 175.726 55.6 175.47 55.6H164.29V55.8484C164.337 56.9602 164.604 57.8591 165.094 58.5452C165.583 59.2312 166.293 59.5742 167.225 59.5742C167.807 59.5742 168.285 59.4559 168.657 59.2194C169.03 58.9591 169.368 58.6516 169.67 58.2968C169.88 58.0366 170.043 57.8828 170.16 57.8355C170.299 57.7645 170.509 57.729 170.788 57.729H175.121C175.33 57.729 175.505 57.8 175.645 57.9419C175.808 58.0602 175.889 58.2258 175.889 58.4387C175.889 59.0538 175.54 59.7634 174.841 60.5677C174.166 61.372 173.176 62.0699 171.871 62.6613C170.567 63.2527 169.03 63.5484 167.26 63.5484ZM170.194 52.0871V52.0161C170.194 50.857 169.927 49.9462 169.391 49.2839C168.878 48.5978 168.156 48.2548 167.225 48.2548C166.316 48.2548 165.594 48.5978 165.059 49.2839C164.546 49.9462 164.29 50.857 164.29 52.0161V52.0871H170.194Z" fill="#F1B300"/>
<path d="M180.492 63.1935C180.236 63.1935 180.027 63.1108 179.863 62.9452C179.7 62.7796 179.619 62.5667 179.619 62.3064V45.629C179.619 45.3688 179.7 45.1559 179.863 44.9903C180.027 44.8247 180.236 44.7419 180.492 44.7419H184.51C184.766 44.7419 184.976 44.8366 185.139 45.0258C185.325 45.1914 185.419 45.3925 185.419 45.629V47.0484C186.7 45.5108 188.423 44.7419 190.589 44.7419H192.127C192.383 44.7419 192.592 44.8247 192.755 44.9903C192.918 45.1559 193 45.3688 193 45.629V49.2839C193 49.5204 192.918 49.7333 192.755 49.9226C192.592 50.0882 192.383 50.171 192.127 50.171H188.738C187.783 50.171 187.037 50.443 186.502 50.9871C185.989 51.5075 185.733 52.2527 185.733 53.2226V62.3064C185.733 62.5667 185.64 62.7796 185.453 62.9452C185.29 63.1108 185.081 63.1935 184.825 63.1935H180.492Z" fill="#F1B300"/>
</svg>
