<svg width="117" height="44" viewBox="0 0 117 44" fill="none" xmlns="http://www.w3.org/2000/svg">
<path d="M13.9019 34.4524L14.1523 35.1083L7.84738 35.1083L8.09747 34.4524L13.9019 34.4524Z" fill="#C3CACF"/>
<path d="M12.8463 35.1082L9.15934 35.1082C7.2069 40.4703 10.7853 43.7332 10.7853 43.7332C15.0692 40.1436 12.8463 35.1082 12.8463 35.1082Z" fill="#FCBF11"/>
<path d="M9.73874 35.1082L12.2704 35.1082C12.4522 36.5217 12.4495 38.9093 10.8814 40.7961C10.8807 40.7961 9.25926 38.6721 9.73874 35.1082Z" fill="#FFE564"/>
<path d="M10.9316 37.9527C10.9316 37.9527 10.2734 36.9098 10.2328 35.1082L11.7671 35.1082C11.7399 35.999 11.5481 37.0573 10.9316 37.9527Z" fill="#EE8940"/>
<path d="M6.69182 33.3364L15.3079 33.3364L15.3079 34.4527L6.69182 34.4527L6.69182 33.3364Z" fill="#AE4B1C"/>
<path d="M16.0046 33.119L16.0046 11.782C16.0046 8.57871 15.768 8.09965 14.773 6.11387C14.6471 5.93126 12.9141 3.46948 11 3.46948C9.01922 3.46948 7.23786 6.09783 7.22022 6.12419C6.27008 7.59996 5.99544 8.18714 5.99544 11.782L5.99544 33.1182L16.0046 33.119Z" fill="#DBE2E8"/>
<path d="M10.9999 3.68771C9.14032 3.68771 7.41881 6.22055 7.40576 6.23965C6.48018 7.67645 6.21359 8.24797 6.21359 11.7829L6.21359 32.9013L15.7859 32.9013L15.7859 11.7821C15.7859 8.63763 15.5557 8.16201 14.5837 6.22437C14.4154 5.98178 12.7752 3.68694 10.9995 3.68694L10.9999 3.68771ZM10.9995 3.2522C13.1204 3.2522 14.9612 6.00279 14.9612 6.00279C15.9754 8.02754 16.2224 8.55015 16.2224 11.781L16.2224 33.3364L5.77707 33.3364L5.77707 11.7821C5.77707 8.20365 6.05057 7.5374 7.03829 6.00394C7.03829 6.00394 8.87949 3.25334 10.9999 3.25334L10.9995 3.2522Z" fill="white"/>
<path d="M8.47765 5.02026L13.6176 5.02026C13.6176 5.02026 15.0173 8.35727 15.0173 11.7821L15.0173 33.3365L6.98398 33.3365L6.98398 11.7821C6.98398 8.20446 8.47765 5.02026 8.47765 5.02026Z" fill="white"/>
<path d="M7.03821 6.0047C7.77507 4.82921 10.3389 1.19995 10.9496 1.19995C11.5706 1.19995 14.5768 5.34036 14.9615 6.0047C14.9615 6.0047 13.184 5.52029 10.9998 5.52029C8.81573 5.52029 7.03821 6.0047 7.03821 6.0047Z" fill="#1B6094"/>
<path d="M10.9566 1.19995C10.9712 1.20107 10.9857 1.20349 10.9999 1.20721C11.4948 1.38447 13.3521 4.7188 13.8768 5.77549C12.9268 5.60947 11.9644 5.52397 10.9999 5.51991C10.0354 5.52393 9.07304 5.60943 8.12307 5.77549C8.78628 4.42311 10.5139 1.22708 10.9566 1.19995Z" fill="#3473A0"/>
<path d="M16.2175 17.7615L16.2175 30.8016L22 30.8016L22 28.5193C22 28.0437 16.2175 17.7615 16.2175 17.7615Z" fill="#DBE2E8"/>
<path d="M21.5013 31.6858L16.219 32.6221L16.219 30.8018L22 30.8018L22 31.0814C22 31.557 21.5013 31.6858 21.5013 31.6858Z" fill="#AE4B1C"/>
<path d="M5.78247 17.7615L5.78247 30.8016L-5.70341e-05 30.8016L-5.72337e-05 28.5193C-5.72752e-05 28.0437 5.78247 17.7615 5.78247 17.7615Z" fill="#DBE2E8"/>
<path d="M0.500135 31.6858L5.78247 32.6236L5.78247 30.8018L-5.81741e-05 30.8018L-5.81497e-05 31.0814C-5.81081e-05 31.557 0.500135 31.6858 0.500135 31.6858Z" fill="#AE4B1C"/>
<path d="M16.2173 17.7615C16.2173 17.7615 21.978 28.0067 21.9976 28.4212C21.9623 28.3998 21.9262 28.378 21.8905 28.3551C18.833 26.4518 17.0881 23.6768 16.2173 21.8931L16.2173 17.7615Z" fill="white"/>
<path d="M5.78247 17.7615L5.78247 21.5817C4.97311 23.331 3.22015 26.3063 0.00918433 28.3257C0.046008 27.9681 5.78247 17.7615 5.78247 17.7615Z" fill="white"/>
<path d="M10.7314 7.80371L10.7314 10.4875C10.4884 10.5224 10.2546 10.6044 10.0433 10.7289L8.1526 8.78934C8.88874 8.20233 9.78998 7.85788 10.7314 7.80371Z" fill="#1B6094"/>
<path d="M11.9568 10.7289C11.7447 10.6041 11.5101 10.5221 11.2663 10.4875L11.2663 7.80371C12.2074 7.85796 13.1082 8.20242 13.844 8.78934L11.9568 10.7289Z" fill="#1B6094"/>
<path d="M12.8098 11.8285C12.7284 11.5431 12.58 11.2812 12.3768 11.0644L14.2448 9.14624C14.9658 9.87009 15.421 10.8147 15.5371 11.8277L12.8098 11.8285Z" fill="#1B6094"/>
<path d="M9.62329 11.0659C9.42013 11.2829 9.27158 11.5447 9.18984 11.83L6.46257 11.83C6.57815 10.8161 7.03341 9.87069 7.75486 9.14624L9.62329 11.0659Z" fill="#1B6094"/>
<path d="M13.6764 33.7485L13.6764 28.1385C13.6835 27.6341 13.8897 27.1527 14.2504 26.7986C14.6111 26.4444 15.0972 26.2458 15.6037 26.2458C16.1102 26.2458 16.5963 26.4444 16.957 26.7986C17.3177 27.1527 17.5239 27.6341 17.531 28.1385L17.531 33.7485L13.6764 33.7485Z" fill="#DBE2E8"/>
<path d="M4.47033 33.7485L4.47033 28.1385C4.47747 27.6341 4.68367 27.1527 5.04434 26.7986C5.405 26.4444 5.89114 26.2458 6.39764 26.2458C6.90414 26.2458 7.39028 26.4444 7.75094 26.7986C8.11161 27.1527 8.31781 27.6341 8.32495 28.1385L8.32495 33.7485L4.47033 33.7485Z" fill="#DBE2E8"/>
<path d="M15.6672 26.2205C16.167 26.2368 16.6409 26.4461 16.9887 26.804C17.3365 27.1619 17.531 27.6405 17.531 28.1386L17.531 33.7487L15.6672 33.7487L15.6672 26.2205Z" fill="#CDD4D9"/>
<path d="M6.34985 26.2205L6.34985 33.7487L4.47032 33.7487L4.47032 28.1386C4.47046 27.6379 4.66709 27.157 5.01823 26.7987C5.36938 26.4403 5.84724 26.2328 6.34985 26.2205Z" fill="#CDD4D9"/>
<path d="M16.5052 34.5913L14.7062 34.5913C13.7537 37.7621 15.4998 39.6913 15.4998 39.6913C17.5888 37.5688 16.5052 34.5913 16.5052 34.5913Z" fill="#FCBF11"/>
<path d="M14.9888 34.5913L16.2231 34.5913C16.3121 35.504 16.311 37.0424 15.5453 38.2587C15.5453 38.2603 14.7544 36.8896 14.9888 34.5913Z" fill="#FFE564"/>
<path d="M15.5708 37.1413C15.5708 37.1413 15.2498 36.2061 15.2298 34.5913L15.9778 34.5913C15.9651 35.3913 15.8715 36.3387 15.5708 37.1413Z" fill="#EE8940"/>
<path d="M14.3717 34.5915L16.906 34.5915L16.8404 34.2947L14.4377 34.2947L14.3717 34.5915Z" fill="#BDC3C8"/>
<path d="M14.1772 33.7485L14.1772 34.0683C14.1771 34.0979 14.183 34.1271 14.1943 34.1545C14.2056 34.1818 14.2223 34.2066 14.2433 34.2275C14.2643 34.2484 14.2892 34.265 14.3166 34.2763C14.344 34.2876 14.3734 34.2934 14.4031 34.2933L16.8746 34.2933C16.9042 34.2933 16.9336 34.2875 16.961 34.2762C16.9883 34.2649 17.0132 34.2483 17.0342 34.2274C17.0551 34.2065 17.0717 34.1817 17.083 34.1544C17.0944 34.1271 17.1001 34.0978 17.1001 34.0683L17.1001 33.7485L14.1772 33.7485Z" fill="#DBE2E8"/>
<path d="M14.475 33.7488L14.475 27.3437C14.4805 27.0491 14.6018 26.7683 14.813 26.5619C15.0241 26.3554 15.3082 26.2397 15.6041 26.2397C15.9 26.2397 16.184 26.3554 16.3952 26.5619C16.6063 26.7683 16.7277 27.0491 16.7332 27.3437L16.7332 33.7488L14.475 33.7488Z" fill="#E6ECF0"/>
<path d="M15.6043 26.2192C15.7889 26.2192 15.9717 26.2555 16.1422 26.3258C16.3128 26.3962 16.4677 26.4993 16.5983 26.6294C16.7288 26.7594 16.8323 26.9137 16.9029 27.0836C16.9735 27.2535 17.0098 27.4355 17.0098 27.6194L17.0098 33.7486L16.7332 33.7486L16.7332 27.3435C16.7332 27.0454 16.6143 26.7594 16.4026 26.5485C16.1909 26.3377 15.9037 26.2192 15.6043 26.2192Z" fill="white"/>
<path d="M15.5586 26.22C15.2673 26.2317 14.9918 26.3552 14.7898 26.5646C14.5879 26.774 14.475 27.0531 14.475 27.3435L14.475 33.7486L14.198 33.7486L14.198 27.6193C14.198 27.2558 14.34 26.9065 14.5939 26.6454C14.8478 26.3842 15.1938 26.2317 15.5586 26.22Z" fill="white"/>
<path d="M7.29697 34.5913L5.49834 34.5913C4.54591 37.7621 6.29198 39.6913 6.29198 39.6913C8.38289 37.5688 7.29697 34.5913 7.29697 34.5913Z" fill="#FCBF11"/>
<path d="M5.78097 34.5913L7.01573 34.5913C7.10472 35.504 7.1028 37.0424 6.33793 38.2587C6.33793 38.2603 5.54698 36.8896 5.78097 34.5913Z" fill="#FFE564"/>
<path d="M6.36304 37.1413C6.36304 37.1413 6.04159 36.2061 6.02241 34.5913L6.77002 34.5913C6.75736 35.3913 6.66415 36.3387 6.36304 37.1413Z" fill="#EE8940"/>
<path d="M5.16375 34.5915L7.69849 34.5915L7.63251 34.2947L5.22935 34.2947L5.16375 34.5915Z" fill="#BDC3C8"/>
<path d="M4.96904 33.7485L4.96904 34.0683C4.96899 34.0978 4.97479 34.1271 4.9861 34.1544C4.99741 34.1817 5.01402 34.2065 5.03497 34.2274C5.05592 34.2483 5.0808 34.2649 5.10819 34.2762C5.13558 34.2875 5.16494 34.2933 5.19459 34.2933L7.66679 34.2933C7.69645 34.2934 7.72583 34.2876 7.75325 34.2763C7.78066 34.265 7.80556 34.2484 7.82652 34.2275C7.84748 34.2066 7.86408 34.1818 7.87538 34.1544C7.88667 34.1271 7.89243 34.0978 7.89233 34.0683L7.89233 33.7485L4.96904 33.7485Z" fill="#DBE2E8"/>
<path d="M5.26701 33.7485L5.26701 27.3435C5.27247 27.0488 5.39382 26.7681 5.60497 26.5616C5.81611 26.3552 6.10019 26.2395 6.39608 26.2395C6.69197 26.2395 6.97605 26.3552 7.18719 26.5616C7.39834 26.7681 7.51969 27.0488 7.52515 27.3435L7.52515 33.7485L5.26701 33.7485Z" fill="#E6ECF0"/>
<path d="M6.39617 26.2192C6.76902 26.2192 7.1266 26.3668 7.39024 26.6293C7.65389 26.8919 7.802 27.248 7.802 27.6194L7.802 33.7486L7.52506 33.7486L7.52506 27.3435C7.52506 27.0454 7.40612 26.7594 7.19441 26.5485C6.98271 26.3377 6.69557 26.2192 6.39617 26.2192Z" fill="white"/>
<path d="M6.34985 26.22C6.05854 26.2317 5.78307 26.3552 5.5811 26.5646C5.37912 26.774 5.2663 27.0531 5.26624 27.3435L5.26625 33.7486L4.98969 33.7486L4.98969 27.6193C4.98969 27.2559 5.13161 26.9067 5.38544 26.6455C5.63927 26.3844 5.98511 26.2318 6.34985 26.22Z" fill="white"/>
<path d="M10.6893 33.3365L10.6893 26.8887C10.6879 26.8471 10.6948 26.8058 10.7098 26.767C10.7247 26.7282 10.7473 26.6928 10.7763 26.6629C10.8053 26.633 10.84 26.6092 10.8784 26.593C10.9168 26.5767 10.9581 26.5684 10.9998 26.5684C11.0416 26.5684 11.0829 26.5767 11.1213 26.593C11.1597 26.6092 11.1944 26.633 11.2234 26.6629C11.2523 26.6928 11.275 26.7282 11.2899 26.767C11.3049 26.8058 11.3118 26.8471 11.3104 26.8887L11.3104 33.3365L10.6893 33.3365Z" fill="#EC622A"/>
<path d="M11.7121 14.4688L13.205 14.4688C13.2474 14.4687 13.2895 14.4769 13.3287 14.493C13.368 14.5091 13.4037 14.5328 13.4337 14.5627C13.4637 14.5926 13.4876 14.6281 13.5038 14.6672C13.52 14.7062 13.5284 14.7481 13.5283 14.7904L13.5283 18.3528C13.5284 18.3951 13.52 18.437 13.5038 18.4761C13.4876 18.5152 13.4638 18.5507 13.4337 18.5806C13.4037 18.6106 13.368 18.6343 13.3288 18.6504C13.2895 18.6666 13.2474 18.6749 13.205 18.6749L11.7121 18.6749L11.7121 14.4688Z" fill="#DBE2E8"/>
<path d="M10.2881 14.469L8.79518 14.469C8.75272 14.4689 8.71065 14.4771 8.6714 14.4933C8.63215 14.5094 8.59648 14.5331 8.56644 14.563C8.5364 14.5928 8.51257 14.6283 8.49634 14.6674C8.4801 14.7065 8.47177 14.7484 8.47182 14.7907L8.47182 18.3531C8.47177 18.3954 8.4801 18.4373 8.49633 18.4764C8.51256 18.5154 8.53638 18.551 8.56642 18.5809C8.59645 18.6108 8.63212 18.6345 8.67137 18.6507C8.71063 18.6669 8.7527 18.6751 8.79518 18.6751L10.2881 18.6751L10.2881 14.469Z" fill="#DBE2E8"/>
<path d="M34.497 20.21C32.495 20.21 30.927 19.727 29.793 18.761C28.673 17.781 28.078 16.367 28.008 14.519C27.994 14.141 27.987 13.525 27.987 12.671C27.987 11.803 27.994 11.173 28.008 10.781C28.078 8.961 28.687 7.561 29.835 6.581C30.983 5.587 32.537 5.09 34.497 5.09C35.729 5.09 36.835 5.3 37.815 5.72C38.795 6.126 39.565 6.714 40.125 7.484C40.699 8.24 40.993 9.129 41.007 10.151V10.193C41.007 10.305 40.958 10.403 40.86 10.487C40.776 10.557 40.678 10.592 40.566 10.592H37.731C37.549 10.592 37.409 10.557 37.311 10.487C37.213 10.403 37.129 10.256 37.059 10.046C36.863 9.332 36.555 8.835 36.135 8.555C35.715 8.261 35.162 8.114 34.476 8.114C32.824 8.114 31.97 9.038 31.914 10.886C31.9 11.264 31.893 11.845 31.893 12.629C31.893 13.413 31.9 14.008 31.914 14.414C31.97 16.262 32.824 17.186 34.476 17.186C35.162 17.186 35.722 17.039 36.156 16.745C36.59 16.437 36.891 15.94 37.059 15.254C37.115 15.044 37.192 14.904 37.29 14.834C37.388 14.75 37.535 14.708 37.731 14.708H40.566C40.692 14.708 40.797 14.75 40.881 14.834C40.979 14.918 41.021 15.023 41.007 15.149C40.993 16.171 40.699 17.067 40.125 17.837C39.565 18.593 38.795 19.181 37.815 19.601C36.835 20.007 35.729 20.21 34.497 20.21ZM48.1501 20.21C46.4141 20.21 45.0771 19.797 44.1391 18.971C43.2011 18.145 42.6901 16.983 42.6061 15.485C42.5921 15.303 42.5851 14.988 42.5851 14.54C42.5851 14.092 42.5921 13.777 42.6061 13.595C42.6901 12.111 43.2151 10.956 44.1811 10.13C45.1471 9.29 46.4701 8.87 48.1501 8.87C49.8441 8.87 51.1741 9.29 52.1401 10.13C53.1061 10.956 53.6311 12.111 53.7151 13.595C53.7291 13.777 53.7361 14.092 53.7361 14.54C53.7361 14.988 53.7291 15.303 53.7151 15.485C53.6311 16.983 53.1201 18.145 52.1821 18.971C51.2441 19.797 49.9001 20.21 48.1501 20.21ZM48.1501 17.648C48.7661 17.648 49.2211 17.466 49.5151 17.102C49.8091 16.724 49.9771 16.15 50.0191 15.38C50.0331 15.24 50.0401 14.96 50.0401 14.54C50.0401 14.12 50.0331 13.84 50.0191 13.7C49.9771 12.944 49.8021 12.377 49.4941 11.999C49.2001 11.621 48.7521 11.432 48.1501 11.432C46.9881 11.432 46.3721 12.188 46.3021 13.7L46.2811 14.54L46.3021 15.38C46.3301 16.15 46.4911 16.724 46.7851 17.102C47.0931 17.466 47.5481 17.648 48.1501 17.648ZM60.316 20.21C59.182 20.21 58.23 20.049 57.46 19.727C56.704 19.405 56.144 19.02 55.78 18.572C55.416 18.124 55.234 17.725 55.234 17.375C55.234 17.235 55.283 17.123 55.381 17.039C55.493 16.941 55.612 16.892 55.738 16.892H58.132C58.216 16.892 58.293 16.927 58.363 16.997C58.531 17.109 58.657 17.2 58.741 17.27C59.049 17.494 59.315 17.662 59.539 17.774C59.777 17.872 60.064 17.921 60.4 17.921C60.806 17.921 61.135 17.844 61.387 17.69C61.653 17.522 61.786 17.291 61.786 16.997C61.786 16.759 61.716 16.57 61.576 16.43C61.45 16.29 61.198 16.157 60.82 16.031C60.442 15.891 59.868 15.744 59.098 15.59C57.936 15.352 57.04 14.967 56.41 14.435C55.794 13.889 55.486 13.161 55.486 12.251C55.486 11.677 55.668 11.131 56.032 10.613C56.396 10.095 56.935 9.675 57.649 9.353C58.377 9.031 59.238 8.87 60.232 8.87C61.226 8.87 62.094 9.024 62.836 9.332C63.578 9.64 64.138 10.018 64.516 10.466C64.908 10.9 65.104 11.299 65.104 11.663C65.104 11.789 65.055 11.901 64.957 11.999C64.873 12.097 64.768 12.146 64.642 12.146H62.458C62.346 12.146 62.241 12.111 62.143 12.041C61.961 11.943 61.8 11.838 61.66 11.726C61.422 11.544 61.198 11.404 60.988 11.306C60.778 11.208 60.519 11.159 60.211 11.159C59.847 11.159 59.553 11.243 59.329 11.411C59.119 11.579 59.014 11.796 59.014 12.062C59.014 12.272 59.07 12.447 59.182 12.587C59.308 12.727 59.56 12.867 59.938 13.007C60.33 13.133 60.904 13.266 61.66 13.406C63.018 13.644 64.005 14.064 64.621 14.666C65.251 15.268 65.566 15.975 65.566 16.787C65.566 17.823 65.104 18.656 64.18 19.286C63.256 19.902 61.968 20.21 60.316 20.21ZM67.9545 20C67.8005 20 67.6745 19.951 67.5765 19.853C67.4785 19.755 67.4295 19.629 67.4295 19.475V9.605C67.4295 9.451 67.4785 9.325 67.5765 9.227C67.6745 9.129 67.8005 9.08 67.9545 9.08H70.2435C70.3975 9.08 70.5235 9.129 70.6215 9.227C70.7195 9.325 70.7685 9.451 70.7685 9.605V10.319C71.0905 9.899 71.5175 9.556 72.0495 9.29C72.5955 9.01 73.2045 8.87 73.8765 8.87C75.4165 8.87 76.4805 9.472 77.0685 10.676C77.4045 10.144 77.8735 9.71 78.4755 9.374C79.0775 9.038 79.7215 8.87 80.4075 8.87C81.5555 8.87 82.4865 9.262 83.2005 10.046C83.9285 10.816 84.2925 11.971 84.2925 13.511V19.475C84.2925 19.615 84.2435 19.741 84.1455 19.853C84.0475 19.951 83.9215 20 83.7675 20H81.3315C81.1775 20 81.0445 19.951 80.9325 19.853C80.8345 19.755 80.7855 19.629 80.7855 19.475V13.658C80.7855 12.958 80.6385 12.454 80.3445 12.146C80.0645 11.838 79.6795 11.684 79.1895 11.684C78.7415 11.684 78.3705 11.845 78.0765 12.167C77.7825 12.475 77.6355 12.972 77.6355 13.658V19.475C77.6355 19.615 77.5865 19.741 77.4885 19.853C77.3905 19.951 77.2645 20 77.1105 20H74.6745C74.5205 20 74.3945 19.951 74.2965 19.853C74.1985 19.755 74.1495 19.629 74.1495 19.475V13.658C74.1495 12.972 73.9955 12.475 73.6875 12.167C73.3935 11.845 73.0155 11.684 72.5535 11.684C72.1055 11.684 71.7275 11.845 71.4195 12.167C71.1255 12.475 70.9785 12.965 70.9785 13.637V19.475C70.9785 19.615 70.9295 19.741 70.8315 19.853C70.7335 19.951 70.6075 20 70.4535 20H67.9545ZM91.8318 20.21C90.0958 20.21 88.7588 19.797 87.8208 18.971C86.8828 18.145 86.3718 16.983 86.2878 15.485C86.2738 15.303 86.2668 14.988 86.2668 14.54C86.2668 14.092 86.2738 13.777 86.2878 13.595C86.3718 12.111 86.8968 10.956 87.8628 10.13C88.8288 9.29 90.1518 8.87 91.8318 8.87C93.5258 8.87 94.8558 9.29 95.8218 10.13C96.7878 10.956 97.3128 12.111 97.3968 13.595C97.4108 13.777 97.4178 14.092 97.4178 14.54C97.4178 14.988 97.4108 15.303 97.3968 15.485C97.3128 16.983 96.8018 18.145 95.8638 18.971C94.9258 19.797 93.5818 20.21 91.8318 20.21ZM91.8318 17.648C92.4478 17.648 92.9028 17.466 93.1968 17.102C93.4908 16.724 93.6588 16.15 93.7008 15.38C93.7148 15.24 93.7218 14.96 93.7218 14.54C93.7218 14.12 93.7148 13.84 93.7008 13.7C93.6588 12.944 93.4838 12.377 93.1758 11.999C92.8818 11.621 92.4338 11.432 91.8318 11.432C90.6698 11.432 90.0538 12.188 89.9838 13.7L89.9628 14.54L89.9838 15.38C90.0118 16.15 90.1728 16.724 90.4668 17.102C90.7748 17.466 91.2298 17.648 91.8318 17.648Z" fill="#212121"/>
<path d="M34.497 39.21C32.495 39.21 30.927 38.727 29.793 37.761C28.673 36.781 28.078 35.367 28.008 33.519C27.994 33.141 27.987 32.525 27.987 31.671C27.987 30.803 27.994 30.173 28.008 29.781C28.078 27.961 28.687 26.561 29.835 25.581C30.983 24.587 32.537 24.09 34.497 24.09C35.729 24.09 36.835 24.3 37.815 24.72C38.795 25.126 39.565 25.714 40.125 26.484C40.699 27.24 40.993 28.129 41.007 29.151V29.193C41.007 29.305 40.958 29.403 40.86 29.487C40.776 29.557 40.678 29.592 40.566 29.592H37.731C37.549 29.592 37.409 29.557 37.311 29.487C37.213 29.403 37.129 29.256 37.059 29.046C36.863 28.332 36.555 27.835 36.135 27.555C35.715 27.261 35.162 27.114 34.476 27.114C32.824 27.114 31.97 28.038 31.914 29.886C31.9 30.264 31.893 30.845 31.893 31.629C31.893 32.413 31.9 33.008 31.914 33.414C31.97 35.262 32.824 36.186 34.476 36.186C35.162 36.186 35.722 36.039 36.156 35.745C36.59 35.437 36.891 34.94 37.059 34.254C37.115 34.044 37.192 33.904 37.29 33.834C37.388 33.75 37.535 33.708 37.731 33.708H40.566C40.692 33.708 40.797 33.75 40.881 33.834C40.979 33.918 41.021 34.023 41.007 34.149C40.993 35.171 40.699 36.067 40.125 36.837C39.565 37.593 38.795 38.181 37.815 38.601C36.835 39.007 35.729 39.21 34.497 39.21ZM43.5091 39C43.3691 39 43.2431 38.951 43.1311 38.853C43.0331 38.741 42.9841 38.615 42.9841 38.475V24.615C42.9841 24.461 43.0331 24.335 43.1311 24.237C43.2431 24.139 43.3691 24.09 43.5091 24.09H46.1971C46.3511 24.09 46.4771 24.139 46.5751 24.237C46.6731 24.335 46.7221 24.461 46.7221 24.615V29.298C47.5621 28.346 48.6681 27.87 50.0401 27.87C50.8521 27.87 51.5731 28.052 52.2031 28.416C52.8471 28.78 53.3511 29.319 53.7151 30.033C54.0791 30.747 54.2611 31.608 54.2611 32.616V38.475C54.2611 38.615 54.2121 38.741 54.1141 38.853C54.0161 38.951 53.8901 39 53.7361 39H51.0271C50.8871 39 50.7611 38.951 50.6491 38.853C50.5511 38.741 50.5021 38.615 50.5021 38.475V32.742C50.5021 32.084 50.3411 31.58 50.0191 31.23C49.7111 30.866 49.2561 30.684 48.6541 30.684C48.0521 30.684 47.5761 30.866 47.2261 31.23C46.8901 31.58 46.7221 32.084 46.7221 32.742V38.475C46.7221 38.629 46.6731 38.755 46.5751 38.853C46.4771 38.951 46.3511 39 46.1971 39H43.5091ZM59.9184 39.21C59.1764 39.21 58.4974 39.07 57.8814 38.79C57.2794 38.496 56.8034 38.104 56.4534 37.614C56.1174 37.11 55.9494 36.557 55.9494 35.955C55.9494 34.989 56.3414 34.212 57.1254 33.624C57.9234 33.036 59.0154 32.63 60.4014 32.406L63.0264 32.007V31.713C63.0264 31.181 62.9144 30.789 62.6904 30.537C62.4664 30.285 62.0884 30.159 61.5564 30.159C61.2344 30.159 60.9684 30.215 60.7584 30.327C60.5484 30.439 60.3314 30.593 60.1074 30.789C59.9114 30.957 59.7644 31.069 59.6664 31.125C59.6244 31.237 59.5474 31.293 59.4354 31.293H57.1464C57.0064 31.293 56.8874 31.251 56.7894 31.167C56.7054 31.069 56.6704 30.957 56.6844 30.831C56.6984 30.453 56.8804 30.033 57.2304 29.571C57.5944 29.109 58.1404 28.71 58.8684 28.374C59.6104 28.038 60.5204 27.87 61.5984 27.87C63.3204 27.87 64.5944 28.255 65.4204 29.025C66.2464 29.781 66.6594 30.803 66.6594 32.091V38.475C66.6594 38.615 66.6104 38.741 66.5124 38.853C66.4144 38.951 66.2884 39 66.1344 39H63.6984C63.5584 39 63.4324 38.951 63.3204 38.853C63.2224 38.741 63.1734 38.615 63.1734 38.475V37.74C62.8654 38.174 62.4314 38.531 61.8714 38.811C61.3254 39.077 60.6744 39.21 59.9184 39.21ZM60.9054 36.816C61.5494 36.816 62.0674 36.606 62.4594 36.186C62.8654 35.766 63.0684 35.15 63.0684 34.338V34.044L61.2834 34.359C60.0234 34.583 59.3934 35.024 59.3934 35.682C59.3934 36.032 59.5404 36.312 59.8344 36.522C60.1284 36.718 60.4854 36.816 60.9054 36.816ZM69.5541 39C69.4001 39 69.2741 38.951 69.1761 38.853C69.0781 38.755 69.0291 38.629 69.0291 38.475V28.605C69.0291 28.451 69.0781 28.325 69.1761 28.227C69.2741 28.129 69.4001 28.08 69.5541 28.08H71.9691C72.1231 28.08 72.2491 28.129 72.3471 28.227C72.4591 28.325 72.5151 28.451 72.5151 28.605V29.403C72.8931 28.941 73.3761 28.57 73.9641 28.29C74.5661 28.01 75.2451 27.87 76.0011 27.87C77.2331 27.87 78.2341 28.29 79.0041 29.13C79.7741 29.956 80.1591 31.118 80.1591 32.616V38.475C80.1591 38.615 80.1101 38.741 80.0121 38.853C79.9141 38.951 79.7881 39 79.6341 39H76.9881C76.8481 39 76.7221 38.951 76.6101 38.853C76.5121 38.741 76.4631 38.615 76.4631 38.475V32.742C76.4631 32.084 76.3021 31.58 75.9801 31.23C75.6581 30.866 75.1961 30.684 74.5941 30.684C74.0061 30.684 73.5441 30.866 73.2081 31.23C72.8721 31.58 72.7041 32.084 72.7041 32.742V38.475C72.7041 38.615 72.6551 38.741 72.5571 38.853C72.4591 38.951 72.3331 39 72.1791 39H69.5541ZM87.8782 43.62C86.5482 43.62 85.4702 43.403 84.6442 42.969C83.8182 42.535 83.2232 42.038 82.8592 41.478C82.5092 40.918 82.3342 40.449 82.3342 40.071C82.3342 39.945 82.3902 39.833 82.5022 39.735C82.6142 39.637 82.7402 39.588 82.8802 39.588H85.5472C85.6872 39.588 85.7922 39.616 85.8622 39.672C85.9462 39.742 86.0232 39.854 86.0932 40.008C86.2332 40.33 86.4222 40.582 86.6602 40.764C86.8982 40.96 87.2692 41.058 87.7732 41.058C88.4172 41.058 88.8932 40.897 89.2012 40.575C89.5092 40.267 89.6632 39.742 89.6632 39V37.593C88.9492 38.377 87.9272 38.769 86.5972 38.769C85.1832 38.769 84.0982 38.356 83.3422 37.53C82.6002 36.69 82.1942 35.479 82.1242 33.897L82.1032 33.33C82.1032 31.636 82.4812 30.306 83.2372 29.34C83.9932 28.36 85.1132 27.87 86.5972 27.87C87.3112 27.87 87.9412 28.01 88.4872 28.29C89.0332 28.556 89.4952 28.92 89.8732 29.382V28.605C89.8732 28.451 89.9222 28.325 90.0202 28.227C90.1322 28.129 90.2582 28.08 90.3982 28.08H92.8132C92.9672 28.08 93.0932 28.136 93.1912 28.248C93.3032 28.346 93.3592 28.465 93.3592 28.605V38.706C93.3592 40.302 92.8832 41.52 91.9312 42.36C90.9792 43.2 89.6282 43.62 87.8782 43.62ZM87.7312 36.039C88.3612 36.039 88.8302 35.85 89.1382 35.472C89.4462 35.08 89.6212 34.59 89.6632 34.002C89.6772 33.904 89.6842 33.687 89.6842 33.351C89.6842 33.029 89.6772 32.819 89.6632 32.721C89.6352 32.133 89.4602 31.65 89.1382 31.272C88.8302 30.88 88.3612 30.684 87.7312 30.684C87.0732 30.684 86.5972 30.88 86.3032 31.272C86.0092 31.664 85.8482 32.203 85.8202 32.889L85.7992 33.351C85.7992 34.177 85.9392 34.835 86.2192 35.325C86.4992 35.801 87.0032 36.039 87.7312 36.039ZM100.873 39.21C99.1928 39.21 97.8698 38.755 96.9038 37.845C95.9378 36.935 95.4338 35.612 95.3918 33.876V33.141C95.4478 31.489 95.9588 30.201 96.9248 29.277C97.9048 28.339 99.2138 27.87 100.852 27.87C102.042 27.87 103.043 28.115 103.855 28.605C104.681 29.081 105.297 29.739 105.703 30.579C106.123 31.419 106.333 32.385 106.333 33.477V33.981C106.333 34.121 106.284 34.247 106.186 34.359C106.088 34.457 105.962 34.506 105.808 34.506H99.0878V34.653C99.1158 35.311 99.2768 35.843 99.5708 36.249C99.8648 36.655 100.292 36.858 100.852 36.858C101.202 36.858 101.489 36.788 101.713 36.648C101.937 36.494 102.14 36.312 102.322 36.102C102.448 35.948 102.546 35.857 102.616 35.829C102.7 35.787 102.826 35.766 102.994 35.766H105.598C105.724 35.766 105.829 35.808 105.913 35.892C106.011 35.962 106.06 36.06 106.06 36.186C106.06 36.55 105.85 36.97 105.43 37.446C105.024 37.922 104.429 38.335 103.645 38.685C102.861 39.035 101.937 39.21 100.873 39.21ZM102.637 32.427V32.385C102.637 31.699 102.476 31.16 102.154 30.768C101.846 30.362 101.412 30.159 100.852 30.159C100.306 30.159 99.8718 30.362 99.5498 30.768C99.2418 31.16 99.0878 31.699 99.0878 32.385V32.427H102.637ZM108.827 39C108.673 39 108.547 38.951 108.449 38.853C108.351 38.755 108.302 38.629 108.302 38.475V28.605C108.302 28.451 108.351 28.325 108.449 28.227C108.547 28.129 108.673 28.08 108.827 28.08H111.242C111.396 28.08 111.522 28.136 111.62 28.248C111.732 28.346 111.788 28.465 111.788 28.605V29.445C112.558 28.535 113.594 28.08 114.896 28.08H115.82C115.974 28.08 116.1 28.129 116.198 28.227C116.296 28.325 116.345 28.451 116.345 28.605V30.768C116.345 30.908 116.296 31.034 116.198 31.146C116.1 31.244 115.974 31.293 115.82 31.293H113.783C113.209 31.293 112.761 31.454 112.439 31.776C112.131 32.084 111.977 32.525 111.977 33.099V38.475C111.977 38.629 111.921 38.755 111.809 38.853C111.711 38.951 111.585 39 111.431 39H108.827Z" fill="#F1B300"/>
</svg>
